# xmcd
#
# Track frame offsets:
#	150
#	16720
#	30174
#	47224
#	78520
#	93919
#	109404
#	126008
#	142964
#	157670
#	174576
#	186607
#	200627
#	227217
#	242191
#	268356
#	285106
#	299830
#	314660
#
# Disc length: 4343 seconds
#
# Revision: 0
# Processed by: cddbd v1.5.2PL0 Copyright (c) Steve Scherf et al.
# Submitted via: dBpowerAMP V4.0
#
DISCID=1310f513
DTITLE=THOUCH OF CLASS - Dans in die reën
DYEAR=2016
DGENRE=Country
TTITLE0=My Prinses
TTITLE1=Koffiefontein
TTITLE2=The Story
TTITLE3=Neil Diamond Keurspel
TTITLE4=Dans In Die Reën
TTITLE5=Vir Ewig En Altyd
TTITLE6=Langpad
TTITLE7=Somebody Like You
TTITLE8=Vat `n Kans
TTITLE9=Ek Staan Met Trots
TTITLE10=Making Your Mind Up
TTITLE11=Kyk Na My Hart
TTITLE12=Hotel California
TTITLE13=Brown Eyed Girl
TTITLE14=Piano Man
TTITLE15=Zorba The Greek
TTITLE16=Roer Jou Voete
TTITLE17=Op Die Tafels
TTITLE18=Wheels
EXTD=
EXTT0=
EXTT1=
EXTT2=
EXTT3=
EXTT4=
EXTT5=
EXTT6=
EXTT7=
EXTT8=
EXTT9=
EXTT10=
EXTT11=
EXTT12=
EXTT13=
EXTT14=
EXTT15=
EXTT16=
EXTT17=
EXTT18=
PLAYORDER=
